<?xml version="1.0" standalone="no"?><!DOCTYPE svg PUBLIC "-//W3C//DTD SVG 20010904//EN" "http://www.w3.org/TR/2001/REC-SVG-20010904/DTD/svg10.dtd"><svg version="1.0" xmlns="http://www.w3.org/2000/svg" width="246pt" height="246pt" viewBox="0 0 246 246"><path fill="#000" fill-rule="nonzero" d="M122.922 0l.006.029h.06l6.334.14 6.219.497.023.005 3.079.316.045.004 3.041.426 6.007 1.1 5.931 1.359 5.855 1.668 5.695 1.956 5.582 2.207 5.483 2.464 5.304 2.738 5.167 2.96 4.941 3.198 4.84 3.419 4.67 3.663 4.443 3.88 4.269 4.085 4.094 4.268 3.881 4.452 3.668 4.667 3.418 4.846 3.2 4.937 2.954 5.163 2.748 5.315 2.457 5.479 2.204 5.582 1.944 5.658 1.68 5.852 1.346 5.948 1.1 5.99.011.06.426 3.036.005.057.322 3.063.49 6.197.136 6.34-.136 6.296-.502 6.218-.74 6.13-1.112 6.021-1.346 5.947-1.68 5.844-1.957 5.691-2.197 5.58-2.459 5.453-2.746 5.31-2.95 5.15-3.205 4.99-3.412 4.829-3.673 4.677-3.877 4.442-4.1 4.31-4.267 4.051-4.45 3.881-4.671 3.635-4.823 3.435-4.95 3.205-5.168 3.003-5.307 2.706-5.48 2.485-5.592 2.167-5.687 1.96-5.837 1.672-5.948 1.397-6.027 1.066-6.16.78-6.22.47-6.34.173-6.262-.174-6.231-.469-6.116-.78-6.056-1.066-5.948-1.397-5.849-1.668-5.685-1.963-5.583-2.168-5.45-2.485-5.31-2.71-5.172-2.998-4.972-3.195-4.833-3.444-4.669-3.637-4.447-3.88-4.301-4.052-4.061-4.31-3.886-4.449-3.63-4.67-3.446-4.83-3.206-4.983-2.982-5.162-2.709-5.304-2.5-5.44-2.164-5.6-1.96-5.683-1.67-5.845-1.392-5.958-1.061-6.01-.788-6.129-.462-6.22-.18-6.295.18-6.34.462-6.224.788-6.162 1.061-6.023 1.391-5.946 1.672-5.848 1.959-5.68 2.163-5.589 2.495-5.484 2.715-5.308 2.989-5.173 3.199-4.939 3.445-4.835 3.63-4.662 3.893-4.452 4.055-4.274 4.3-4.083 4.448-3.88 4.667-3.67 4.835-3.412 4.988-3.205 5.152-2.951 5.314-2.74 5.45-2.464 5.572-2.207 5.696-1.964 5.849-1.662 5.948-1.357 6.028-1.101.061-.005 3.046-.426.044-.005 3.025-.316 6.199-.496L122.922 0zm.004 5.561l.064.001-5.982.14-5.976.48-2.91.305-2.89.398-5.793 1.063-5.68 1.292-5.561 1.592-5.44 1.864-5.342 2.115-5.196 2.343-5.063 2.623-4.933 2.817-4.764 3.059-4.617 3.258-4.454 3.5-4.24 3.708-4.122 3.907-3.87 4.08-3.707 4.246-3.468 4.454-3.303 4.632-3.057 4.727-2.847 4.915-2.581 5.07-2.39 5.227-2.064 5.338-1.87 5.446-1.598 5.57-1.324 5.668-1.014 5.735-.753 5.881-.435 5.954-.174 6.056.174 6.012.435 5.948.753 5.849 1.014 5.728 1.323 5.682 1.6 5.56 1.87 5.449 2.064 5.336 2.383 5.196 2.589 5.064 2.852 4.927 3.05 4.754 3.304 4.628 3.467 4.458 3.712 4.253 3.871 4.1 4.11 3.874 4.246 3.712 4.455 3.456 4.625 3.304 4.761 3.06 4.927 2.855 5.063 2.587 5.19 2.369 5.336 2.076 5.452 1.87 5.566 1.596 5.675 1.325 5.766 1.025 5.845.746 5.951.441 5.98.17 6.056-.17 5.952-.44 5.877-.747 5.735-1.025 5.674-1.325 5.572-1.596 5.434-1.87 5.353-2.076 5.226-2.369 5.06-2.587 4.917-2.852 4.731-3.058 4.634-3.308 4.449-3.457 4.24-3.706 4.082-3.88 3.913-4.111 3.703-4.248 3.499-4.452 3.264-4.616 3.053-4.766 2.836-4.927 2.616-5.064 2.338-5.194 2.11-5.348 1.87-5.44 1.59-5.556 1.293-5.685 1.052-5.728.719-5.849.464-5.948.149-6.012-.148-6.056-.465-5.98-.305-2.939-.414-2.889-1.052-5.762-1.293-5.678-1.59-5.56-1.87-5.441-2.11-5.344-2.338-5.232-2.629-5.064-2.823-4.922-3.053-4.727-3.264-4.625-3.5-4.45-3.702-4.246-3.913-4.084-4.088-3.913-4.247-3.7-4.436-3.49-4.634-3.27-4.72-3.06-4.928-2.816-5.058-2.623-5.24-2.343-5.34-2.11-5.435-1.87-5.566-1.591-5.67-1.293-5.772-1.062-2.883-.399-2.939-.304-5.979-.48-6.048-.14.062-.002-.126.001zm.055 2.894l5.942.141 5.79.454 5.755.703 5.603 1.024.006.005 2.808.567.042.006 2.731.703 5.37 1.543.023.01 2.675.846.039.017 2.594.942 5.173 2.045 5.085 2.298 4.95 2.542 4.803 2.758 4.622 2.998 4.536 3.184 4.3 3.423 4.203 3.597 3.958 3.816 3.81 3.962 3.604 4.204 3.422 4.312 3.189 4.519 3 4.622 2.767 4.808 2.534 4.95 2.296 5.086 2.044 5.172.012.022.946 2.612.013.037.844 2.666 1.544 5.37v.02l.719 2.76.004.042.551 2.765 1.03 5.603.709 5.756.454 5.789.141 5.904-.141 5.859-.454 5.79-.71 5.718-1.034 5.664-1.27 5.478-1.543 5.428-.015.027-.84 2.634-.017.027-.943 2.639-2.044 5.217-2.296 5.04-2.533 4.95-2.769 4.798-3 4.667-3.188 4.484-3.424 4.356-3.602 4.159-3.804 3.991-3.964 3.776-4.207 3.603-4.302 3.397-4.517 3.217-4.635 2.966-4.802 2.79-4.95 2.508-5.08 2.327-5.19 2.05-5.303 1.804-5.408 1.546-5.545 1.314-5.624.998-5.757.73-5.79.46-5.896.147-5.838-.146-5.8-.46-5.707-.73-5.658-.998-5.524-1.314-5.433-1.547-5.3-1.804-5.232-2.05-5.047-2.326-4.944-2.505-4.803-2.794-4.67-2.973-4.477-3.21-4.345-3.396-4.164-3.604-3.996-3.776-3.782-4.002-3.61-4.158-3.39-4.346-3.205-4.484-2.966-4.656-2.796-4.809-2.508-4.95-2.327-5.041-2.061-5.229-1.792-5.302-1.555-5.434-1.306-5.486-.995-5.662-.74-5.701-.469-5.807-.125-5.859.125-5.91.469-5.793.74-5.746.995-5.624 1.306-5.545 1.555-5.414 1.798-5.304 2.05-5.188 2.332-5.08 2.508-4.95 2.796-4.81 2.966-4.622 3.212-4.517 3.385-4.307 3.608-4.209 3.782-3.964 3.985-3.804 4.17-3.608 4.35-3.423 4.485-3.182 4.662-3 4.803-2.757 4.944-2.542 5.053-2.3 5.216-2.043.028-.005 2.638-.955.027-.005 2.638-.85 5.424-1.542 5.512-1.277 5.651-1.029 5.72-.704 5.794-.451 5.794-.143zm0 3.48h.04l-5.65.136-5.623.441-5.545.686-5.473.998-5.348 1.232-5.298 1.51-2.547.819-2.554.92-5.086 1.99-4.89 2.23-4.803 2.463-4.656 2.676-4.523 2.91-4.35 3.081-4.219 3.326-4.033 3.494-3.871 3.696-3.668 3.835-3.49 4.08-3.296 4.18-3.115 4.388-2.876 4.486-2.711 4.656-2.431 4.795-2.26 4.941-1.981 5.026-1.756 5.139-1.509 5.244-1.258 5.369-.966 5.446-.724 5.593-.442 5.615-.131 5.722.131 5.675.442 5.62.724 5.555.96 5.473 1.264 5.309 1.51 5.288 1.755 5.14 1.974 5.059 2.262 4.89 2.436 4.8 2.714 4.657 2.874 4.528 3.113 4.352 3.298 4.213 3.489 4.035 3.668 3.873 3.864 3.658 4.04 3.496 4.22 3.292 4.35 3.12 4.522 2.882 4.656 2.703 4.802 2.43 4.89 2.264 5.07 1.984 5.145 1.748 5.271 1.506 5.344 1.27 5.477.96 5.551.713 5.617.447 5.654.136 5.713-.136 5.625-.447 5.577-.713 5.45-.96 5.37-1.27 5.24-1.506 5.139-1.749 5.036-1.984 4.939-2.263 4.791-2.431 4.656-2.697 4.487-2.89 4.386-3.117 4.183-3.291 4.082-3.497 3.831-3.658 3.7-3.874 3.497-4.039 3.318-4.208 3.081-4.352 2.915-4.53 2.672-4.654 2.47-4.801 2.225-4.884 1.992-5.083.918-2.566.823-2.54 1.508-5.305 1.227-5.308 1.003-5.473.682-5.543.442-5.632.136-5.675-.135-5.723-.443-5.62-.682-5.587-1.007-5.468-.529-2.68-.687-2.64-1.515-5.287-.818-2.584-.922-2.518-1.993-5.06-2.225-4.928-2.47-4.795-2.672-4.656-2.915-4.486-3.081-4.389-3.318-4.175-3.495-4.084-3.702-3.835-3.837-3.698-4.082-3.492-4.176-3.32-4.377-3.087-4.497-2.91-4.656-2.676-4.802-2.464-4.928-2.23-5.052-1.99-2.519-.92-2.584-.82-5.267-1.52-2.653-.675-2.698-.546-5.462-.997-5.577-.686-5.62-.441-5.723-.137h.037-.076zm7.769 2.258l.065.002.726.04.768.101.625.167.667.214.587.239.595.322.523.343.44.421.46.446.343.491.322.556.267.557.223.625.135.667.1.692.033.729-.034.731-3.407-.316-.065-.724-.146-.673-.247-.55-.342-.484-.42-.387-.557-.278-.626-.212-.735-.1h-.649l-.595.066-.555.18-.46.246-.374.35-.322.381-.169.484-.104.557-.033.348.065.342.072.316.13.313.219.244.238.246.246.207.349.136 4.87 1.92.772.375.616.392.6.48.512.595.283.382.207.414.213.451.104.457.142 1.004-.033 1.221-.078.769-.177.73-.203.692-.245.634-.306.583-.382.523-.386.49-.492.415-.49.38-.544.317-.601.247-.625.207-.694.141-.697.103h-.77l-.767-.037-.83-.11-.763-.136-.703-.207-.648-.248-.593-.31-.568-.347-.481-.415-.456-.457-.376-.487-.316-.555-.28-.588-.206-.666-.142-.692-.103-.736-.027-.796v-.834l3.438.278.034.801.102.732.248.589.347.517.442.426.604.304.7.218.757.137.838.032.732-.07.626-.17.552-.245.413-.347.323-.42.237-.524.112-.589v-.35l-.072-.342-.115-.354-.162-.313-.213-.27-.247-.253-.31-.207-.315-.174-4.623-1.876-.9-.417-.734-.52-.661-.599-.49-.692-.35-.768-.239-.835-.103-.932.027-1.047.114-.769.142-.691.196-.665.245-.627.283-.557.343-.522.387-.452.453-.415.446-.345.53-.316.555-.24.59-.216.633-.133.691-.07.699-.038zm-24.184 1.323l.727.039.698.099.664.177.66.28.588.376.589.453.555.523.523.626.453.661.459.773.38.823.35.91.311.977.238 1.007.209 1.112.18 1.146.065 1.154.039 1.075-.066 1.04-.11.977-.173.944-.24.899-.283.806-.345.729-.424.694-.454.588-.517.525-.555.45-.623.355-.663.241-.731.174-2.677.451v.002l-4.973.764-3.306-20.53 7.68-1.251.599-.034v.004l.173-.039zm35.908.593l13.426 3.478-.916 3.588-4.966-1.285-4.31 16.552-3.484-.9 4.31-16.56-5.003-1.33.943-3.543zm-50.347 2.26l1.217 3.482-8.521 3.02 1.456 4.11 7.86-2.753 1.222 3.447-7.866 2.784 1.776 5.08 8.94-3.161 1.254 3.472-12.276 4.356-6.928-19.63 11.866-4.208zm14.123.84l-.424.027-3.679.59 2.158 13.435 2.086-.316v-.002l1.571-.276.376-.1.35-.142.348-.25.316-.24.267-.316.257-.375.38-.906.235-1.041.11-1.254-.039-1.388-.173-1.533-.284-1.467-.377-1.248-.451-1.08-.557-.834-.28-.348-.314-.277-.343-.248-.349-.173-.382-.141-.382-.072h-.279v.002l-.141-.027zm58.512 3.961l3.794 1.744-3.166 21.43-3.408-1.572-.141-.064.14-.769.623-3.549-.622-.277v.002l-5.112-2.335-2.82 3.408-3.438-1.563 11.37-13.222 2.78-3.233zm-88.845 1.287l1.776 3.2-4.49 2.502 8.31 14.998-3.165 1.743-8.274-14.996-4.526 2.496-1.776-3.226 12.145-6.717zm88.785 3.827l-2.719 3.303v.002l-2.71 3.309 2.71 1.248v.004l1.22.516 1.5-8.382zm12.272.905l11.49 7.826-2.1 3.033-4.24-2.889-9.631 14.16-2.993-2.021 9.665-14.162-4.268-2.918 2.077-3.029zM60.848 33.365L72.92 50.31l-2.926 2.083L57.927 35.45l2.92-2.086zm-7.09 5.043l.001.001 14.155 15.273-2.611 2.438-15.23-6.161 10.12 10.891-2.467 2.294-14.169-15.268 2.78-2.578 14.865 6.056-9.882-10.651 2.438-2.295zm69.16.524l.035 2.781-4.104.106-4.067.31-4.072.512-3.968.719-3.893.889-3.838 1.09-3.754 1.27-3.703 1.466-3.543 1.609-3.532 1.81-3.385 1.956-3.282 2.116-3.182 2.26-3.048 2.39-2.938 2.539-2.835 2.7-2.671 2.8-2.567 2.944-2.394 3.041-2.255 3.183-2.088 3.282-1.946 3.39-1.815 3.484-1.608 3.599-1.466 3.657-1.277 3.757-1.085 3.832-.893 3.934-.719 3.964-.52 4.077-.33 4.072-.112 4.168.112 4.14.33 4.066.52 4.072.72 3.968.892 3.898 1.084 3.8 1.277 3.76 1.467 3.691 1.608 3.559 1.815 3.527 1.946 3.373 2.091 3.293 2.252 3.184 2.39 3.03 2.572 2.95 2.67 2.835 2.835 2.666 2.944 2.566 3.042 2.393 3.176 2.257 3.282 2.093 3.385 1.94 3.538 1.822 3.543 1.608 3.703 1.477 3.754 1.252 3.838 1.104 3.892.881 3.973.72 4.079.511 4.067.34 4.093.103 4.175-.103 4.067-.34 4.082-.51 3.957-.722 3.936-.88 3.827-1.103 3.761-1.255 3.658-1.475 3.598-1.614 3.477-1.816 3.397-1.94 3.287-2.093 3.178-2.257 3.042-2.393 2.942-2.557 2.802-2.675 2.692-2.847 2.537-2.926 2.403-3.048 2.257-3.183 2.121-3.288 1.944-3.373 1.816-3.529 1.608-3.558 1.46-3.691 1.284-3.76 1.082-3.799.89-3.905.718-3.961.52-4.072.304-4.067.104-4.139-.104-4.18-.304-4.07-.52-4.067-.719-3.964-.889-3.936-1.082-3.831-1.284-3.757-1.46-3.663-1.608-3.587-1.816-3.488-1.944-3.385-2.123-3.288-2.256-3.183-2.402-3.041-2.526-2.943-2.703-2.802-2.802-2.704-2.942-2.535-3.037-2.393-3.189-2.256-3.28-2.116-3.397-1.956-3.484-1.81-3.592-1.609-3.658-1.465-3.76-1.271-3.828-1.09-3.93-.888-3.963-.719-4.076-.514-4.073-.31-4.175-.105-.032-2.78 4.348.105.031.003 4.166.319 4.225.528 4.104.74 4.06.93 3.965 1.12 3.902 1.314 3.783 1.522 3.712 1.661 3.61 1.875 3.503 2.017 3.398 2.191 3.29 2.335 3.147 2.474 3.04 2.62 2.902 2.798 2.796 2.902 2.618 3.045 2.48 3.14 2.325 3.291 2.191 3.396 2.024 3.507 1.87 3.602 1.667 3.718 1.516 3.79 1.319 3.895 1.133 3.964.91 4.067.754 4.1.53 4.213.01.033.305 4.175v.039l.102 4.277v.028l-.102 4.252-.005.039-.31 4.17-.53 4.213-.751 4.1-.917 4.034-1.128 3.93-1.32 3.896-1.514 3.823-1.667 3.673-1.872 3.646-2.021 3.494-2.191 3.403-2.33 3.292-2.48 3.143-2.616 3.038-2.795 2.938-2.901 2.765-3.03 2.641-3.156 2.486-3.293 2.335-3.4 2.159-3.5 2.005-3.609 1.887-3.712 1.661-3.783 1.528-3.904 1.302-3.962 1.133-4.062.923-4.104.739-4.208.53-.028.005-4.186.349h-.04l-4.277.099h-.032l-4.209-.1h-.038l-4.182-.354-4.204-.53-4.096-.738-4.04-.923-3.964-1.134-3.892-1.302-3.822-1.525-3.683-1.664-3.643-1.885-3.493-2.009-3.396-2.157-3.298-2.339-3.15-2.48-3.043-2.644-2.938-2.763-2.753-2.938-2.654-3.03-2.475-3.156-2.339-3.295-2.152-3.394-2.018-3.495-1.87-3.648-1.673-3.675-1.514-3.825-1.308-3.893-1.136-3.928-.92-4.034-.748-4.1-.533-4.207v-.028l-.355-4.182v-.037l-.099-4.247v-.04l.1-4.277.012-.045.343-4.175.533-4.203.747-4.098.921-4.067 1.128-3.964 1.313-3.897 1.516-3.794 1.674-3.712 1.87-3.604 2.017-3.504 2.153-3.396 2.339-3.292 2.475-3.147 2.653-3.041 2.759-2.904 2.934-2.791 3.041-2.616 3.156-2.483 3.286-2.332 3.402-2.19 3.49-2.018 3.646-1.875 3.685-1.668 3.819-1.515 3.893-1.314 3.964-1.124 4.034-.926 4.105-.741 4.207-.53.037-.003 4.181-.312.029-.003 4.173-.106zm69.13 1.074l9.077 8.667-2.54 2.682-6.536-6.262-3.03 3.166 6.023 5.773-2.54 2.639-6.023-5.774-3.712 3.893 6.84 6.545-2.535 2.678-9.424-8.973 14.4-15.034zm-71.984 7.867v.002h7.239l.523.136.523.21.621.383.316.279.313.31.283.381.272.42.209.524.173.557.108.657.034.731v10.615l-.067.237-.174.595-.382.699-.245.348-.359.312-.198.207-.283.206-.348.147-.454.067-.27-.038-.28-.104-.27-.136-.322-.213-.352-.277-.347-.345-.453-.382-.446-.35-.59-.314-.659-.247-.354-.03h-.349l-.348.075-.313.163-.276.252-.28.344-.418.173-.938.349-.589.14-.595.067-.592-.066-.24-.07-.253-.104-1.939-1.466.589-.726.53-.769.55-.871.451-.938.14-.451.1-.42-.038-.377-.062-.315-.21-.247-.345-.207-.25-.276-.24-.28-.382-.35-.451-.276-.518-.24-.633-.072h-.316l-.387.072-.932-.104-.872-.07-.83.032-2.408 1.32-.098-.207-.174-.628-.143-.905v-.523l.038-.556.14-.589.235-.561.319-.557.496-.55.62-.522.762-.45.977-.384 1.185-.318h1.912l.064-.484.149-.49.24-.584.207-.289.25-.31.272-.241.35-.245.418-.207.486-.141.557-.1.62-.038zm-80.637 4.66l11.231 8.317-.141.201-.031-.027.027.033.004-.006.22.18.167-.171.623.483.556.524.459.555.414.557.354.589.273.593.202.633.147.621.064.626v.661l-.064.627-.174.66-.207.664-.28.622-.354.671-.446.62-.492.627-.522.524-.524.486-.55.382-.595.348-.62.244-.602.201-.657.141-.622.034-.665-.034-.66-.069-.665-.169-.655-.251-.658-.272-.666-.382-.665-.452-.343-.283-11.131-8.21 2.191-2.956 11.17 8.28.14.106.66.414.655.283.67.136h.655l.59-.136.597-.246.513-.382.491-.523.355-.549.207-.632.09-.59-.027-.627-.173-.594-.238-.555-.382-.525-.486-.451-.142-.103-11.491-8.493 2.203-2.955zm11.231 8.317l.145-.207.028.032.244.208-.171.177-.004-.003-.24-.207h-.002zm45.302-8.072v.002l1.317.037 1.357.136 1.495.278 1.601.42.215.135.484.35.317.246.31.31.276.382.241.414.213.523.098.562v.589l-.136.696-.272.732-.458.802-.654.832-.877.939-.272.245-.248.278-.174.38-.103.421v.24l.066.239.142.285.174.283.277.234.383.283.272.523.387.553.556.626.769.632.458.278.517.24.556.208.627.173.654.103.736.039.342.033.885-.033.582-.066.661-.141.697-.214.698-.31-.213.557-.485 1.358-.288.833-.234.834-.141.801-.067.691-.313.247-.347.213-.425.174-.55.065h-.316l-.312-.065-.31-.108-.355-.171-.343-.245-.347-.343-4.003-2.926-2.955-2.257-1.112-.95-.626-.622-.523-.243-.459-.28-.162-.207-.22-.211-.103-.24-.066-.283v-.351l.106-.343.207-.381.315-.42.479-.414.667-.49.07-.312.174-.764.104-1.078v-.562l-.105-.556-.174-.517-.283-.457-.375-.376-.252-.144-.305-.141-.315-.065-.382-.065-.874.033-1.073.207-1.293.453-.652.446-1.752 1.33-1.247 1.009-1.428 1.215-1.566 1.423-1.73 1.636-1.81 1.842-1.921 2.054-1.95 2.262-1.947 2.47-1.946 2.682-.976 1.389-.942 1.467-.937 1.488-.906 1.564-.873 1.602-.866 1.636-.41.664-.521.622-.323.279-.348.277-.376.252-.421.169-.484.103h-.486l-.49-.137-.557-.245-.555-.42-.595-.588-.211.343-.622.872-.97 1.178-.595.632-.62.628-.7.627-.73.517-.769.457-.768.344-.801.212-.413.033h-.378l-.418-.033-.388-.11-.382-.173-.423-.206 4.042-4.662 4.351-4.905 5.216-5.805 5.668-6.094 2.858-2.955 2.743-2.786 2.653-2.573 2.47-2.224 1.106-1.013 1.074-.868 1.014-.763.905-.632.211-.174.622-.409 1.074-.562.676-.277.79-.283.873-.24 1.014-.208 1.074-.137 1.184-.038zm49.882.003h-.001l1.187.033 1.353.142 1.571.273 1.77.417 1.99.629 2.264.802 2.5 1.007.174.034.661.207 1.143.561.803.485.905.627 1.11.797 1.222 1.013 1.423 1.215 1.609 1.465 1.804 1.773 1.945 2.011 2.202 2.339 2.393 2.676 17.396 23.69.418.736.387.693.236.702.037.268-.037.245-.103.142-.247.065-.342-.065-.523-.214-.668-.342-.865-.523-1.395-1.358-1.31-1.112-.67-.557-.62-.424-.525-.305-.414-.136h-.173l-.114.066-.066.141v.207l.147.66.415 1.009.73 1.395 1.112 1.841.761 1.076.764 1.225.868 1.526.424.835.414.866.355.905.278.904.207.905.137.905v.906l-.105.84-.141.658-.214.59-.27.556-.18.167-.165.144h-.217l-.234-.099-.29-.252-.273-.375-.342-.59-.355-.8-.763-1.084-.726-1.01-.843-.974-.382-.415-.345-.28-.282-.21-.209-.032-.096.068-.034.111-.05.376.111.595.244.908-.096.553-.175.451-.28.414-.185.142-.174.072h-.234l-.278-.106-.315-.21-.35-.381-.375-.487-.427-.697-30.432-47.834-.039-.178-.141-.416-.311-.627-.245-.31-.312-.316-.386-.28-.447-.272-.556-.211-.637-.139-.754-.074-.867.038-.98.137-1.111.249-.172.06-.217.116-.272.202-.29.316-.266.418-.25.552-.207.735-.066.414-.283 1.145-.589 1.745-.42 1.036-.55 1.155-.665 1.249-.796 1.292-.95 1.389-1.112 1.397-1.241 1.427-1.472 1.384-1.637 1.43-1.842 1.356-.418.207-.412.246-.173.208-.179.243-.143.279-.096.343-.04.387.04.453.141.522.24.557.343.66.454.736.173.413.245.453.42.524.557.616.762.67.975.627.59.278.632.272.07-.072.208-.128.311-.11h.211l.202.064.252.111.276.174.313.316.31.382.343.523.355.626.38.796.42.977.41.658.523.628.321.31.35.28.414.276.451.213.454.135.529.04.544-.072.555-.207.595-.316.633-.524 13.531-9.424.376-.524.424-.419.273-.207.282-.141.313-.1h.354l.343.1.375.175.382.348.424.485.393.67.41.834 8.214 13.283.196.313.11.315.034.388-.061.175-.115.202-.202.173-.29.174-.342.141-.442.142-.61.099-.687.072-.305-.104-.982-.209-1.63-.212-2.333-.136-1.426-.032-1.6.032-1.77.067-1.99.173-2.148.25-2.333.35-2.507.447-2.713.555-.285.142-.31.065h-.41l-.529-.207-.621-.375-.355-.315-.343-.422-.39-.447-.379-.6-.344-.588-1.013-1.527-1.568-2.197-.977-1.175-1.069-1.26-1.188-1.223-1.247-1.138-1.359-1.074-.735-.496-.692-.414-.769-.419-.731-.348-.763-.285-.806-.24-.753-.136-.813-.103h-.794l-.835.07h-.24l-.699.138-.446.102-.527.213-.528.272-.521.35-.484.458-.483.59-.422.696-.315.83-.24 1.013-.136 1.144.03 1.357.209 1.532-.48 3.135-9.887-14.267-.209-.21-.555-.59-.31-.454-.321-.517-.302-.664-.287-.73-.235-.835-.115-.905-.026-1.008.097-1.111.279-1.19.451-1.287.66-1.352.873-1.466.069-.17.245-.49.416-.56.244-.31.306-.241.348-.207.421-.142.424-.067.481.067.522.174.563.316.625.486.661.658.386-.065.998-.211.601-.247.657-.273.623-.385.561-.486.207-.142.245-.103.285-.071h.376l.409.109.43.239.446.422.382.31.491.278.628.205.348.072.42.038h.446l.455-.072.483-.14.556-.214.523-.31.595-.382.27-.273.389-.25.561-.273.72-.243.906-.208 1.122-.066 1.346.1.803.102.81.032.416-.065.38-.072.378-.142.314-.207.208-.31.136-.35.038-.483-.103-.6-.279-.692-.45-.834-.28-.241-.621-.593-.358-.421-.346-.484-.315-.523-.207-.556-.067-.589.033-.595.11-.31.17-.31.174-.285.278-.31.347-.279.388-.276.486-.28.523-.276 1.357-.487 1.7-.451.136-.142.218-.173.307-.209.381-.245.56-.208.66-.174.84-.141.966-.066zm57.758 1.981h.589l.595.028.593.115.556.2.556.252.557.304.513.388.523.454.451.517.496.556.41.627.36.632.272.622.208.626.174.667.06.62v.627l-.06.595-.106.625-.21.59-.246.594-.306.556-.382.557-.456.523-.517.49-.595.48-2.05-2.75.522-.555.382-.554.279-.556.097-.556v-.556l-.14-.601-.236-.621-.418-.593-.415-.52-.46-.381-.484-.317-.522-.173-.487-.07-.479.038-.53.173-.446.28-.282.24-.247.282-.169.277-.141.312-.072.315v.31l.033.35.098.35 1.81 4.906.214.8.148.762v.732l-.072.802-.11.446-.18.458-.2.408-.247.421-.316.386-.342.382-.939.802-.632.414-.654.38-.66.323-.626.202-.66.174-.627.072h-.633l-.626-.034-.615-.136-.605-.217-.59-.273-.55-.31-.552-.421-.565-.484-.486-.557-.518-.633-.457-.659-.382-.654-.344-.665-.25-.66-.17-.665-.071-.66-.033-.62.034-.632.136-.628.179-.589.268-.589.354-.598.427-.59.483-.556.545-.55.672-.561 2.048 2.78-.594.561-.446.556-.278.589-.142.593v.628l.142.621.278.665.414.653.557.634.517.523.528.347.562.236.55.108.513-.034.527-.173.526-.349.283-.207.2-.277.182-.315.129-.313.072-.354v-.382l-.033-.342-.073-.35-1.698-4.692-.28-.944-.101-.943.033-.823.174-.839.348-.802.49-.73.616-.692.806-.67.628-.409.622-.382.631-.282.617-.24.598-.142.628-.106zm-54.585 3.441h.413l.486.11.523.24.562.382.555.522.623.73 1.464 2.648.247.241.2.283.214.375.141.526v.626l-.072.342-.103.387-.18.422-.2.414-7.62 7.239-5.43 5.106-1.946 1.815-.97.836-.083.038h-.173l-.345-.077-.413-.208-.555-.45-.667-.732-.764-1.112-.866-1.565.524-.382 1.319-1.118 1.88-1.699 1.113-1.078 1.112-1.151 1.145-1.287 1.113-1.358 1.079-1.428 1.013-1.488.865-1.569.737-1.604.312-.8.238-.802.204-.827.15-.809.099-.168.247-.387.451-.518.283-.252.312-.169.342-.173.42-.07zm-55.35 1.183h.011l.342.072.318.141.202.207.175.349.042.454-.11.587-.239.732-.419.909-.311.31-.244.31-.285.422-.17.484-.031.246.032.277.072.273.175.289.207.273.315.277 1.176 1.01 1.364 1.078 1.662 1.32 1.951 1.388 2.116 1.398 1.085.658 1.085.595 1.073.556 1.073.451.11-.032.382-.037.557.141.31.103.354.213.343.273.375.382.355.49.35.595.337.724.305.91.284 1.035.279 1.223h-.45l-1.251-.104-.939-.136-1.15-.246-1.319-.35-1.537-.451-1.74-.627-1.913-.764-2.12-.944-2.257-1.144-2.475-1.389-2.647-1.642-2.815-1.88-3.025-2.153-.283-.18-.24-.235-.169-.348-.077-.213v-.208l.045-.277.129-.279.17-.31.284-.316.388-.38.483-.389 5.566-5.566.802-.276.735-.208.415-.034.382-.037zm62.272 8.043l.207.065.25.136.274.25.306.35.385.48.394.665 2.142 4.105.179.315.137.35.108.447.072.49-.072.517-.207.523-.217.246-.234.24-12.31 9.922-.49.31-.562.273-.632.244-.655.18-.316.034-.31-.034-.273-.076-.25-.173-.207-.208-.169-.312-.67-.626-.588-.692-.655-.84-.289-.452-.24-.452-.207-.453-.097-.452-.034-.452.065-.42.203-.382.342-.342 13.747-12.56.11-.416.168-.387.24-.282.174-.103.181-.028zm-73.31 2.436h-.001l.67.55 1.836 1.5 1.293 1.013 1.568 1.106 1.735 1.222 1.95 1.216 2.12 1.22 2.296 1.178 2.366 1.112 1.247.49 1.26.491 1.285.448 1.32.387 1.319.303 1.332.319 1.323.205 1.351.177 1.364.074 1.352.034 1.946 2.889-1.042-.42-1.113-.35-1.355-.277-.692-.109-.742-.066h-.691l-.7.105-.62.173-.596.28-.483.381-.416.523-.347.174-.279.244-.343.382-.29.589-.103.348-.07.42-.033.452.033.52.07.555.138.665-3.33-.939-3.593-1.079-4.377-1.395-4.804-1.631-4.763-1.777-2.294-.942-2.16-.965-1.957-.949-1.701-.97.601-.904 1.63-2.398 1.15-1.533 1.325-1.673 1.455-1.7 1.56-1.668zM32.001 80.327l.496.038.454.076.447.1.418.168.775.425.344.238.348.319.55.697.427.764.273.865.07.454.044.49-.045.447-.069.452-.105.457-.168.42-.426.796-.55.698-.693.55-.775.426-.865.278-.454.066h-.936l-.491-.066-.415-.141-.418-.137-.42-.213-.376-.213-.698-.55-.556-.698-.415-.796-.283-.877-.066-.452v-.937l.066-.454.11-.448.173-.417.207-.389.208-.375.556-.697.698-.557.796-.425.833-.27.49-.074.441-.038zm181.167 0l.49.038.454.076.451.1.416.168.796.425.66.557.56.697.458.764.236.865.074.454.034.49-.034.447-.075.452-.104.457-.13.42-.46.796-.559.698-.66.55-.796.426-.867.278-.454.066h-.941l-.448-.066-.456-.141-.422-.137-.414-.213-.377-.213-.67-.55-.56-.698-.448-.796-.239-.877-.078-.452-.032-.447.032-.49.078-.454.102-.448.137-.417.213-.389.234-.375.563-.697.67-.557.79-.425.879-.27.446-.074.451-.038zM73.662 81.66l.28.027v.001l.457.283 1.313.764 2.263 1.148 1.468.694 1.699.768 1.946.796 2.196.834 2.393.867 2.676.872 2.895.871 3.131.868 3.417.84 3.608.8.038.383.136 1.181.348 1.881.28 1.215.42 1.358.07.31-.033.285-.11.31-.107.17-.169.137-.213.109-.273.101-.31.072-.42.034h-.523l-.562-.066-26.083-1.952-.736.98-.8 1.004-1.081 1.112-.627.562-.66.523-.697.524-.72.414-.774.343-.764.246-.806.103h-.822l-.323-.169-.382-.108-.414-.072-.244.039-.247.103-.207.102-.207.214-.217.279-.168.342-.132.42-.115.557-.273.348-.384.416-.557.483-.733.596-.899.592-1.11.59-1.357.594-.285-.142-.317-.07-.342.044-.207.096-.18.105-.136.21-.175.235-.104.354-.103.416-.072.528v.791l-.07.393-.059.27-.18.286-.208.31-.316.31-.38.285-.524.277-.655.24-.778.213-.933.17-1.112.074h-1.286l-1.467-.075 4.356-7.02.273-.6.21-.556.073-.312v-.31l-.028-.316-.153-.245-.168-.247-.322-.174-.448-.103-.555-.032-.698.075-.866.17 3.122-6.296-.065-.42v-.446l.065-.595.181-.697.343-.803.282-.381.317-.415.381-.424.454-.415.07.04h.207l.382-.142.627-.312.905-.626 1.187-.976 1.5-1.494 1.875-2.023.589.286.616.173.846.142h.451l.486-.077.479-.137.528-.213.52-.27.523-.427.517-.523.49-.655.561-.806.595-.763.73-.9.798-.87.806-.731.376-.286.348-.167.348-.1zm55.352 3.792h.697l.829.096.975.316 1.085.556 1.247.775 1.433 1.003.268.206.698.555 1.08.908 1.323 1.317.732.768.724.906.736 1.009.769 1.074.692 1.188.697 1.282.628 1.388.583 1.5.114.383.132.422.244.521.319.56.417.556.524.518.66.42.211.213.552.447.451.277.519.279.666.244.164.05-2.318.188-44.464.867.031-.168.28-.173.628-.523.412-.416.453-.451.491-.59.447-.627.425-.736.348-.833.312-.872.208-.965.07-1.051-.07-1.146-.208-1.184-.393-1.286-.093-.382-.174-.974-.115-1.358-.033-.764.033-.8.115-.768.207-.725.28-.666.381-.587.244-.285.273-.202.315-.174.343-.147.427-.103.415-.066h.484l.523.032.141-.104.415-.173.66-.137.418-.038.488.038.522.071.563.136.624.24.655.35.704.49.72.59.768.768.801.905.768 1.111.802 1.287 1.008 1.636 1.107 1.944 1.116 2.165 1.01 2.295.49 1.181.453 1.185.169.654.244.593.28.486.179.179.168.105.17-.04.214-.141.173-.31.174-.453.208-.66.169-.904-.17-1.947-.174-2.055-.104-2.43v-2.508l.039-1.222.105-1.144.174-1.04.207-.905.284-.737.16-.273.22-.244.034-.246.207-.628.178-.385.233-.381.323-.376.378-.319.49-.238.589-.173zm20.17 19.737l8.01-.644 7.234 10.159-2.885 10.16-.074 39.765-6.013 3.274-.077-38.403-.033-.557-.102-.567-.214-.622-.347-.658-.236-.284-.315-.273-.35-.207-.414-.18-.485-.067-.561-.037-.524.037-.486.1-.381.18-.391.207-.268.205-.283.285-.378.557-.276.589-.142.555-.072.734.034 41.086-5.249 1.804-.105-41.606v-.556l-.042-.557-.17-.66-.136-.349-.18-.316-.235-.31-.282-.28-.382-.2-.414-.18-.524-.141-.628-.034-.456.034-.42.064-.384.15-.347.173-.305.234-.283.256-.415.55-.273.589-.212.563-.11.484v.344l.034 43.798-5.14 1.493-.077-44.873v-.555l-.097-.556-.213-.66-.142-.31-.207-.354-.246-.28-.31-.272-.382-.25-.457-.168-.52-.141-.588-.034-.523.034-.452.108-.42.168-.343.207-.315.25-.24.307-.427.628-.245.664-.131.593-.066.621.17 46.193h-5.991v-46.226l-.028-.556-.102-.523-.22-.659-.38-.628-.236-.283-.288-.266-.382-.215-.375-.174-.491-.102-.556-.033-.55.033-.486.102-.425.132-.354.217-.3.24-.257.28-.195.31-.186.316-.24.66-.135.56-.034.688.142 45.397-6.06-2.083v-43.624l-.033-.52-.104-.555-.209-.665-.387-.622-.238-.277-.279-.279-.382-.207-.381-.178-.49-.106-.557-.032-.484.032-.415.072-.425.142-.31.168-.316.207-.24.213-.421.557-.283.593-.174.589-.062.522-.037.421-.07 41.607-5.594-1.71-.075-40.77-.071-.555-.1-.517-.21-.667-.35-.626-.245-.28-.28-.276-.31-.207-.38-.18-.459-.136-.48-.033-.8.067-.7.204-.559.351-.481.458-.393.523-.264.583-.149.63-.06.663v37.954l-5.785-3.51-.103-39.596-2.157-10.162 7.962-9.915 12.327 1.46.279-.005-.428 2.27 25.331 2.638 1.636-.174 1.74-.273 1.843-.342 1.848-.427 3.754-.931 3.582-1.014 3.172-.97 2.567-.833 2.338-.809-.603-.19zM17.126 100.65v-.002l20.595 3.027-1.772 12.073-3.648-.555 1.25-8.525-4.595-.66-1.112 7.445-3.647-.56 1.073-7.443-8.667-1.252.523-3.548zm212.225.343l.445 3.307-17.322 2.33 17.75.832.483 3.484-16.946 5.46 17.367-2.332.415 3.303-20.64 2.786-.685-5.184 15.894-5.255-16.7-.834-.694-5.107 20.633-2.79zm-55.15 6.548v.001h.42l.449.132.456.244.454.315.806.66.545.596.223.238.023.348.076.319.143.207.174.169.207.141.2.066.492.042.484-.076.46-.099.413-.173.631-.277.557-.213.448-.073h.418l.306.111.283.142.202.207.186.238.207.52.096.529.034.517-.103.595-.027.517.065.454.108.384.137.35.165.24.249.246.208.173.49.246.453.136.409.037.767.208.499.312.2.141.115.207.136.382v.418l-.136.453-.252.459-.316.44-.769.873-.785.729-.877.694-.518.283-.49.316-.386.41-.389.458-.3.49-.282.478-.42 1.05-.31.974-.182.8-.129.802-.147-.323-.247-.231-.24-.208-.298-.147-.672-.24-.692-.105-.697-.037h-.563l-.549.07-.736-.24-.623-.284-.49-.273-.382-.282-.31-.31-.213-.28-.141-.315-.066-.273v-.56l.1-.415.213-.382.348-.49.21-.453.106-.38v-.383l-.105-.316-.142-.31-.2-.245-.25-.247-.556-.382-.53-.238-.583-.213-.589-.387-.457-.376-.311-.35-.214-.315-.07-.312-.026-.277.06-.246.14-.24.355-.35.41-.282.456-.24.35-.349.239-.342.343-.665.143-.622.037-.562-.097-.447-.114-.317-.165-.315-.038-1.314.105-1.046.174-.77.282-.522.169-.174.171-.141.38-.133zm-104.609 3.13v.002l-.451 1.912-.24 1.603-.112 1.315v1.013l.111.763.066.484.136.42-.24 1.008-.344 1.048-.426 1.045-.522 1.042-.59 1.043-.588 1.045-1.255 1.913-1.252 1.666-1.04 1.327-.978 1.183.18-1.364.034-1.175-.034-1.01-.141-.806-.175-.622-.174-.454-.18-.384-.42-.553-.305-.556-.218-.556-.066-.56v-.556l.065-.562.148-.517.174-.486.427-.872.441-.698.491-.589.342-1.15.454-.97.528-.905.56-.8.583-.694.628-.631.622-.525.671-.446 1.172-.665.986-.42.685-.235.247-.07zm-34.057 6.225l-.001-.001.594 12.564-3.695.169-.427-9.042-4.37.205.414 8.32-3.685.173-.381-8.312-5.359.24.448 9.494-3.719.18-.627-13.016 20.808-.974zm40.112 1.531l.409 1.81.285 1.668.103 1.493-.034 1.36-.173 1.22-.245 1.118-.344.937-.382.833-.424.697-.41.623-.453.49-.386.381-.627.485-.246.18-.73.48-.73.523-1.294 1.113-1.104 1.08-.943 1.044-.73.902-.552.703-.419.653-.207-.899-.108-.835v-.767l.037-.694.174-1.013.104-.376-.104-1.188v-1.036l.104-.98.135-.869.209-.769.245-.69.277-.633.322-.52.268-.45.315-.387.556-.519.42-.314.136-.1.95-.63.86-.63.769-.627.692-.586 1.155-1.151.829-1.041.627-.875.382-.657.282-.557zm-20.56.699l-.002-.002.621.971 1.36 2.228 1.388 2.504.49 1.046.24.764-.06 1.079-.04 1.258.067 1.594.147 1.878.306 2.017.243 1.085.286 1.047.337 1.074.42 1.041-.375-.244-1.052-.655-1.494-1.091-.796-.648-.872-.774-.868-.835-.8-.937-.808-1.008-.692-1.043-.587-1.11-.46-1.227-.13-.588-.148-.621-.063-.665-.033-.628.174-.273.517-1.053 1.04-2.256 1.643-3.928zm136.073.551h.267l.25.04.448.174.425.31.343.453.321.484.268.555.42 1.085.245.831.066.347.62.491.498.485.38.446.285.427.167.415.1.385.08.35-.05.304-.129.557-.208.393-.283.344-.344.276-.317.28-.207.246-.141.276-.06.246-.04.234.066.459.143.347.174.284.246.28.415.798.31.694.174.589.071.523v.42l-.104.344-.141.283-.208.24-.234.142-.25.136-.486.136-.527.038-.52.173-.418.247-.317.278-.24.31-.17.31-.081.322-.032.306v.355l.14.589.18.485.28.483.18.453.097.459.033.375-.033.355-.098.311-.114.272-.344.458-.424.317-.382.202-.382.173-1.178.628-.872.626-.627.555-.38.524-.219.421-.098.31v.273l-.136-.372-.317-.491-1.006-1.292-1.005-1.182-.452-.486-.59-.413-.496-.387-.348-.415-.244-.387-.133-.375-.065-.35v-.342l.033-.317.24-.561.267-.42.393-.382.065-.317v-.31l-.065-.62-.17-.558-.282-.522-.24-.42-.283-.343-.24-.283-.452-.622-.345-.634-.183-.556-.067-.556.043-.556.093-.485.174-.456.246-.415.277-.414.285-.344.517-.528.627-.486-.245-.833-.104-.737-.042-.622.074-.522.112-.416.173-.352.207-.279.238-.213.247-.169.283-.108.475-.099h.496l.768-.109.59-.136.49-.137.382-.21.273-.178.174-.21.103-.201.071-.209-.04-.387-.168-.31-.207-.317.698-1.007.625-.731.306-.246.323-.168.272-.142.25-.072zm19.89 1.842l3.652.529-1.28 8.977 4.317.621 1.178-8.28 3.645.523-1.172 8.282 5.317.769 1.323-9.393 3.685.517-1.842 12.875-20.595-2.96 1.773-12.46zm-40.669 4.422l.35.071.347.136.35.214.31.245.522.557.454.653.556.633.556.38.53.246.483.1h.42l.298-.034.322-.1.73-.18.63-.032.516.072.425.174.344.207.24.31.18.317.142.381.06.732-.027.698-.109.696-.486.764-.344.659-.207.589-.12.49-.026.376.07.355.104.245.18.214.168.168.213.097.447.148h.49l.732.173.55.171.425.211.312.24.162.28.115.243v.285l-.07.24-.28.524-.316.413-.446.381-.42.763-.266.703-.154.595-.027.517.027.454.154.414.2.316.241.278.245.207.306.213.562.203.586.173.802.6.556.583.388.523.168.491.075.484-.075.454-.207.386-.246.344-.304.342-.388.283-.697.421-.556.28-.235.063-.522.452-.491.459-.737.795-.49.731-.272.661-.143.517-.037.424.038.312-1.145-.447-1.217-.632-1.22-.7-1.15-.757-1.804-1.247-.698-.568-.839-.031-.61-.106-.524-.173-.36-.214-.213-.238-.129-.285-.045-.299.045-.322.097-.316.146-.31.313-.556.412-.523.427-.279.273-.238.244-.213.138-.202.101-.214.04-.207-.06-.348-.18-.28-.252-.211-.238-.174-.874-.137-.73-.211-.551-.28-.45-.31-.323-.345-.24-.384-.135-.427-.079-.414v-.376l.04-.382.174-.703.174-.452.1-.168.173-.556.076-.556-.034-.523-.069-.492-.246-.724-.136-.317-.638-.279-.44-.316-.32-.35-.173-.347-.103-.343v-.349l.032-.381.137-.349.343-.627.427-.519.483-.49.524-.447.42-.523.247-.523.173-.524.065-.414.038-.387-.038-.31.317-.982.304-.719.322-.53.349-.348.387-.207.34-.072zm-133.802 5.67l1.668 7.625.141.735.039.72-.076.736-.17.658-.244.667-.316.652-.414.596-.491.595-.583.555-.672.485-.724.453-.806.457-.863.376-.936.382-1.054.316-1.08.283-1.144.203-1.112.179-.103.032v.002l-.97.031-1.046.032-1.013-.063-.935-.11-.871-.169-.834-.246-.768-.31-.697-.391-.623-.415-.561-.486-.49-.491-.377-.583-.315-.664-.214-.698-1.662-7.583 11.376-2.536 8.94-2.026zm40.987.11l.032.032v.136l-.02.05-.012-.218zm.012.218v.001l.087 1.798-.03 1.847-.178 1.702-.213 1.46-.201 1.183-.207.905-.252.764-.975.866-1.205 1.26-2.72 2.954-2.333 2.68-.977 1.153.209-1.119.114-.97v-.805l-.034-.695-.08-.56-.1-.378-.109-.283-.06-1.247.028-1.151.142-1.04.245-.938.279-.845.343-.758.415-.666.381-.55.458-.484.388-.426.756-.62.524-.351.217-.108 1.87-1.357 1.357-1.112.95-.835.55-.622.273-.457.088-.196zm-26.832 2.912l.273.524.35.478.412.46.453.408 1.047.773 1.069.627 1.019.451.867.35.8.28.9.588.812.556.694.555.586.56.976 1.004.698.91.486.763.238.596.182.484.66 1.984.796 2.05.935 2.224-1.46-1.008-1.215-.693-.9-.446-.696-.258-.492-.066h-.315l-.236.066-.844-.376-.796-.414-.767-.457-.694-.484-.62-.487-.595-.562-.556-.479-.496-.555-.868-1.19-.73-1.182-.583-1.183-.458-1.182-.348-1.107-.248-1.08-.173-.974-.097-.841-.066-1.22v-.447zm158.323.484h.002l3.546.941-1.286 4.972 16.588 4.319-.9 3.406-16.593-4.24-1.287 4.938-3.58-.942 3.51-13.394zm-175.275.52l-6.158 1.39-7.098 1.57.834 3.583.105.388.173.347.25.343.274.28.304.244.426.245.905.31 1.08.181 1.252.027 1.353-.099h.142l1.388-.289 1.431-.377 1.252-.446 1.036-.523.807-.595.316-.315.273-.305.244-.349.132-.393.114-.382.067-.375-.034-.415-.066-.42-.802-3.624zm43.276 9.847l.348 1.188.351.937.283.665.24.48.201.317.142.174.135.065.111 1.113.038.98v.9l-.038.802-.17 1.39-.283 1.083-.283.796-.279.523-.305.415-.207 1.046-.213.976-.24.867-.289.736-.272.66-.283.589-.546.865-.528.633-.415.381-.387.246.104-.769.031-.77-.03-.756-.105-.734-.136-.7-.137-.685-.419-1.221-.454-1.08-.384-.801-.414-.697.173-1.67.24-1.492.317-1.326.347-1.145.382-1.013.382-.866.445-.73.427-.595.388-.517.413-.382.66-.556.49-.258.169-.064zm-36.733 1.674l4.45 11.758-3.442 1.32-3.205-8.488-4.105 1.565 2.96 7.794-3.444 1.325-2.96-7.796-5.005 1.876 3.37 8.869-3.484 1.33-4.623-12.145 19.488-7.408zm145.11 3.511h.376l.388.066.633.21.446.208.18.11.486.207.337.31.22.377.141.457.032.492-.032.49-.072.518-.141.523-.382 1.01-.387.826-.453.841.116.697v.595l-.082.451-.131.382-.217.31-.204.207-.238.148-.279.066-.595.033-.517-.067-.491-.18-1.602-.696-1.15-.617-.664-.451-.236-.181-.282-.769-.171-.652-.102-.526.032-.418.07-.306.132-.257.213-.131.239-.103.245-.032.283.032.53.103.511.17-.136 1.81v.244l.033-.21.349-2.57.17-.968.25-.814.273-.653.316-.49.387-.381.376-.247.391-.141.41-.033zm22.12.49h.672l.658.031.697.106.694.173.698.277-1.292 3.168-.725-.142-.665-.065-.62.065-.563.18-.48.31-.43.42-.383.557-.304.658-.218.628-.099.595v.556l.1.518.217.49.272.381.414.349.486.234.358.148.344.032h.317l.344-.032.316-.11.279-.137.276-.21.241-.274 3.27-4.109.561-.616.562-.493.62-.385.732-.344.446-.142.464-.103.48-.038h.49l.487.072.523.101 1.144.389.698.31.659.375.595.382.517.459.448.451.43.49.348.557.268.555.212.59.136.628.072.622v.67l-.072.685-.136.704-.169.724-.279.768-.353.732-.382.703-.375.622-.453.517-.459.484-.478.42-.568.382-.556.29-.595.201-.62.142-.627.065-.697.033-.688-.066-.774-.108-.763-.202-.802-.283 1.326-3.168.762.213.698.065.665-.031.583-.171.52-.354.489-.446.42-.589.354-.703.277-.802.137-.698.038-.659-.109-.589-.173-.523-.318-.414-.446-.388-.519-.277-.353-.099-.343-.038h-.36l-.338.072-.323.136-.3.174-.316.207-.243.251-3.174 3.893-.659.725-.693.562-.764.417-.806.28-.83.136-.87-.034-.944-.174-.965-.354-.703-.31-.62-.343-.595-.381-.523-.422-.448-.446-.387-.459-.343-.517-.25-.523-.202-.562-.146-.587-.067-.596-.032-.622.066-.665.107-.653.209-.7.24-.702.31-.659.349-.622.38-.593.46-.485.446-.458.49-.415.556-.31.555-.279.557-.207.634-.141.615-.103zm-153.212.1v-.002l1.194.901.942.632.758.35.555.173.458.04.279-.04.168-.103 1.287.343 1.193.42 1.101.419 1.042.458.938.447.877.454.84.49.723.523.703.48.623.523 1.04 1.004.868 1.046.704.975.484.976.382.872.24.802.14.692.137 1.009-.034.38-8.693-1.946-1.324-.937-1.178-.975-1.085-1.014-.966-1.042-.844-1.041-.692-1.008-.627-1.008-.556-.943-.806-1.734-.523-1.358-.234-.938-.114-.32zm117.623.975l.625 1.119.602.974.523.835.48.69.451.558.415.459.394.342.342.244.556.28.387.102.235-.037.081-.032.654.276.524.28.386.354.312.348.174.344.097.38.032.422v.342l-.161.737-.253.589-.31.523-.277.31-.213.316-.279.55-.063.492.063.413.142.354.18.28.201.206.447.764.322.625.169.55.078.493-.078.385-.13.313-.18.25-.273.164-.283.141-.316.103-.555.072h-.655l-.557.066-.496.141-.387.18-.267.202-.243.25-.137.24-.11.283-.034.316.033.518.111.48.174.459.13.692.078.582-.078.522-.169.422-.213.382-.304.315-.32.24-.379.207-.768.283-.66.141-.697.067h-.665l-.616.033-.562.069-.518.144-.942.343-.73.418-.562.414-.416.388-.31.381-.348-.769-.42-.798-.971-1.6-.8-1.181-.388-.493-.59-.446-.45-.446-.345-.42-.223-.414-.087-.415-.039-.353.072-.388.054-.307.322-.597.376-.41.462-.381.521-.387.347-.447.244-.42.1-.457.038-.379v-.282l-.07-.277-.137-.486-.033-.449v-.384l.07-.345.132-.316.18-.283.415-.454.45-.31.421-.213.45-.168.422-.142.306-.173.283-.169.212-.213.136-.246.066-.207.07-.446-.036-.388-.1-.349-.135-.31-.289-.524-.17-.451-.064-.416.027-.348.081-.342.097-.253.177-.24.205-.206.458-.318.453-.174.446-.103.623-.279.39-.244.236-.174.077-.18.033-.17-.072-.098-.07-.075-.033-.555.065-.488.077-.45.147-.346.124-.342.219-.256.409-.448.409-.244.393-.174.343-.072zm-92.531 8.453l-.009-.007h.063l.382.944.595 1.188 1.461 2.536 1.324 2.158.59.9.208.795.168.845.147.796.033.796v1.497l-.134 1.36-.206 1.177-.206.878-.248.796-.483-.834-.556-.62-.562-.526-.556-.38-.486-.245-.382-.18-.348-.099-.323-.457-.261-.453-.43-1.041-.267-1.068-.207-1.079-.148-.937-.033-.764-.037-.735-.038-2.406.075-1.77.18-1.286.17-.868.206-.53.17-.276.148-.105zm-33.752.318l4.42 7.658.245.481.207.517.103.523.11.49v.523l-.032.524-.078.523-.175.486-.174.48-.278.483-.279.46-.348.446-.413.421-.426.376-.517.38-.524.323-.768.376-.763.316-.732.173-.724.066-.703-.032-.622-.1-.039-.04-.62-.24-.589-.355v.322l-.044.557-.097.48-.18.49-.24.418-.344.42-.425.421-.518.382-.628.41-2.958 1.775-.627.388-.376.348-.213.382-.07.451-.454.28-2.016-3.479.949-.802.827-.555 2.786-1.708.557-.385.447-.381.31-.377.174-.425.033-.449-.067-.484-.173-.523-.277-.627-1.876-3.227-7.06 4.023-1.775-3.048 15.583-8.911v.003l2.471-1.427zm154.474 1.111l-.001.002 8.134 11.61 6.648 4.072-1.884 3.058-6.679-4.107-14.156-1.699 2.191-3.576 9.566 1.668-5.951-7.588 2.132-3.44zm-155.863 3.723l-1.08.627v.002l-3.723 2.126 2.335 4.03.316.412.342.311.388.201.342.15v-.003h.077l.447.033.517-.067.492-.141.55-.273.522-.343.422-.393.348-.376.207-.414.15-.458v-.441l-.112-.458-.211-.454-2.329-4.071zm20.212 2.575l.938.278 2.262.595 1.429.342 1.499.322 1.46.235 1.352.18.212.064.247.213.376.344.529.524.697.763.83 1.041.973 1.389.905 1.358.938 1.287.519.627.56.588-1.356-.208-1.493-.277-1.876-.484-2.159-.694-1.155-.457-1.146-.524-1.182-.62-1.144-.66-1.156-.775-1.108-.866-.174-.589-.457-1.353-.59-1.526-.342-.626-.388-.491zm21.75 4.099h.901l1.007.108 1.28.18 1.506.312 1.635.512.835.349.833.414.84.49.828.52.589.49.664.625.84.868.91 1.15.965 1.46.487.868.451.91.453 1.002.452 1.081-.868-.066-2.157-.279-1.396-.277-1.492-.387-1.532-.481-1.494-.664-.524-.905-1.395-2.23-.97-1.455-1.118-1.536-1.211-1.565-1.32-1.494zm73.791 3.025l.007.062.204.034.206.038.312.24.288.348.163.317.143.344.217.315.202.207.238.08.244.066.382.032.174-.032.273-.103h.246l.208.07.207.105.145.174.099.21.18.487.065.518.034.485-.032.458-.1.625-.18.553-.418.908-.345.595-.137.235-.729.14-.632.073h-.552l-.49-.072-.381-.108-.355-.133-.272-.21-.207-.174-.285-.422-.175-.374-.063-.422.103-.244.077-.24v-.241l-.045-.174-.173-.348-.273-.246-.322-.207-.278-.136-.267-.076-.147-.382-.108-.31v-.627l.173-.52.323-.456.302-.382.323-.24.312-.25.316-.28.273-.173.283-.103.244-.034zm-15.867 1.493l.414.076.451.17.492.35.518.483.562.704v.174l.038.169.136.18.337.168.53.1.769.038 1.112-.138.096-.103.351-.245.491-.278.31-.104.36-.075h.342l.382.075.41.174.386.28.415.375.452.523.419.703.421.868-.143.174v.136l.143.108.386.072.727-.072 1.11-.243 1.647-.421-.459.42-.975 1.003-.593.632-.557.692-.459.703-.375.655-.524.451-.703.458-.932.557-.311-.071h-.633l-.31.07-.266.208-.12.104-.061.18v1.035l-.114.523-.093.246-.142.24-.18.175-.24.108-.315.033-.343-.065-.42-.181-.524-.31-.555-.453-.687-.66-.225-.14-.207-.142-.304-.066h-.316l-.378.169-.386.31-.348.6-.143.168-.38.416-.518.49-.35.213-.387.207-.376.135-.419.072-.459-.039-.45-.135-.45-.24-.483-.414-.46-.6-.45-.757-.207-.247-.241-.213-.355-.243-.375-.144-.454-.06-.49.093-.278.14-.279.214-.103.344-.173.354-.24.285-.187.097-.205.07h-.236l-.289-.038-.262-.129-.36-.246-.417-.31-.422-.427-.195.072-.328.065h-.376l-.523-.065-.589-.173-.768-.346-.834-.524-.49-.173-.519-.11-.594-.07-.583.032-.322.072-.24.141-.245.175-.169.207-.135.31-.078.387.665.629 1.484 1.602.878.974.844 1.082.686 1 .279.525.24.446-1.7.743-.273-.802-.389-.878-.523-1.005-.697-1.078-.414-.524-.452-.522-.522-.452-.553-.414-.593-.345-.66-.283-.245-.213-.273-.169-.382-.147-.469-.097-.483.034-.513.173-.25.179-.274.24-.246.072-.659.244-1.013.415-1.211.654-.665.458-.66.523-.691.627-.633.697-.627.802-.59.9-.527.976-.41 1.142-1.466-.483.426-.833.55-.905.763-1.151 1.047-1.247.621-.634.665-.652.763-.628.806-.595.905-.557.934-.523.031-.103.045-.173-.103-.31-.11-.144-.137-.201-.25-.181-.35-.177-.41-.171-.555-.174-.626-.181-.802-.129-.937-.141-1.113-.106h-.382l-1.154-.075-1.63-.169-.937-.174-1.047-.234-1.084-.322-1.075-.382-1.079-.492-1.078-.587-1.005-.727-.98-.8-.408-.49-.422-.491-.382-.519-.384-.589.276-.107.73-.273.557-.142.697-.142.835-.066.942.027 1.081.072 1.176.219 1.325.347 1.454.476 1.604.67 1.707.867 1.847 1.073 1.972 1.33 1.196.801 1.04.623.905.522.065.103.245.24.42.28.242.147.347.063.415.072.463-.039.517-.065.622-.179.659-.279.763-.382.814-.517.932-.664 5.533-4.345.168-.422.277-.348.213-.207.201-.169.322-.147.317-.103.414-.039h.454l.49.11.588.18.665.267.724.387.105.103.142.032.276.034.416-.066.6-.201.79-.322 1.041-.524.283-.62.348-.558.24-.244.24-.245.322-.202.349-.103.382-.044zm47.315.738h.62l.632.032.623.142.627.204.6.243.62.344.59.42.593.454-2.294 2.576-.632-.382-.629-.282-.582-.137h-.562l-.589.103-.523.285-.556.382-.523.524-.382.523-.315.517-.168.55-.072.522.038.494.13.484.28.45.386.388.272.241.32.174.307.104.322.07h.31l.349-.07.306-.104.315-.141 4.46-2.78.73-.416.692-.282.737-.175.764-.066h.483l.486.066.459.103.446.18.452.208.457.273.938.73.556.562.522.556.422.587.342.563.273.62.214.595.174.626.07.623v.627l-.071.631-.174.623-.213.626-.273.633-.342.62-.464.628-.48.589-.556.598-.593.519-.59.451-.593.382-.595.31-.588.247-.627.141-.628.066-.626.032-.629-.07-.657-.13-.632-.214-.655-.31-.66-.355-.665-.447-.659-.484 2.26-2.612.668.48.653.316.621.142.638.039.583-.147.6-.235.584-.42.561-.596.524-.62.375-.638.25-.62.1-.557v-.552l-.169-.527-.279-.487-.419-.446-.279-.217-.316-.133-.31-.108-.35-.072h-.385l-.35.072-.345.11-.303.173-4.253 2.612-.866.447-.868.305-.871.18-.838-.034-.831-.146-.845-.344-.796-.451-.794-.66-.556-.512-.496-.53-.409-.56-.36-.556-.274-.59-.2-.556-.148-.589-.093-.593v-.595l.06-.583.147-.637.169-.583.279-.595.343-.589.393-.555.475-.595.527-.518.524-.49.557-.42.587-.31.589-.285.6-.202.589-.141.627-.066zm-134.606.552l2.67 3.16-8.754 13.29v.004l-3.168 4.765-2.54-2.955 2.541-3.581-4.079-4.763-4 1.835-2.465-2.882 13.711-6.122v.001l6.084-2.752zm29.015 2.993l.484.037.737.204 1.04.419 1.5.663 1.909 1.004.766.285 1.882.697 1.172.377 1.265.347 1.247.284 1.152.168-.523.105-1.425.315-2.233.595-2.814.933-.207.038-.561.141-.9.136-1.214.033-.695-.032-.768-.1-.806-.178-.866-.24-.911-.355-.965-.414-.982-.556-1.034-.66-.322-.447-.829-1.085-.523-.627-.568-.587-.583-.52-.56-.354 6.754-.485.036-.038.099-.066.246-.037zm-31.239 1.597l-3.86 1.847-3.859 1.847 2.811 3.27 1.048-1.459 3.86-5.505zm9.709 3.692h-.002l2.814 2.257-10.745 13.264 6.612 5.352-2.372 2.917-9.426-7.616 13.119-16.174zm39.273.173l.452.07 1.466.174 2.672.174 1.876.033 2.233.034-.451.348-1.08.91-.633.59-.582.588-.524.599-.35.578-1.428.114-2.157.311-3.407.556-.726.136-.84.108-1.04.111-1.22.064-1.288-.03-1.32-.112-1.322-.276.103-.215.354-.446.577-.698.428-.418.483-.414.59-.414.696-.46.769-.413.905-.414 1.008-.355 1.117-.35 1.249-.272 1.39-.211zm73.546 3.655l2.091 3.059-7.52 5.075 2.48 3.624 6.88-4.692 2.092 3.058-6.889 4.7 2.99 4.42 7.863-5.33 2.086 3.062-10.748 7.303-11.72-17.18 10.395-7.099zm-97.095 7.688l3.305 1.563v.004l4.736 2.155.48.238.451.311.416.35.348.387.31.386.285.447.207.454.175.527.141.486.076.561v1.101l-.108.556-.136.6-.181.588-.252.561-.413.764-.452.69-.481.558-.56.492-.595.376-.622.287-.625.137-.661.065.138.28.31.457.212.451.136.48.033.491-.033.555-.1.557-.21.628-.285.696-1.389 3.162-.279.665-.097.517.065.42.17.422-.201.49-1.01-.454v-.001l-2.616-1.223.283-1.182.35-.938 1.28-3.026.251-.626.136-.562v-.48l-.065-.452-.215-.393-.347-.344-.451-.347-.59-.31-3.412-1.6-3.407 7.41-3.205-1.466 8.704-18.921zm85.685.068l.001.001 3.585 21.33-3.063 1.421-14.057-16.379 3.478-1.642 10.029 12.73-3.342-15.891 3.369-1.57zm-83.989 4.697l-2.322 5.042 3.93 1.816v-.004l.273.105.496.174.442.066.457-.034.453-.14.38-.236.355-.348.345-.42.276-.524.246-.589.136-.555.034-.53-.066-.48-.136-.418-.28-.381-.348-.322-.419-.241-2.643-1.215v.002l-1.609-.768zm13.082 1.737l12.075 3.45-.97 3.51-8.732-2.47-1.19 4.247 8.04 2.257-1.008 3.554-8.04-2.3-1.46 5.184 9.12 2.573-1.005 3.592-12.494-3.559 5.664-20.038zm52.714 1.424h.553l.487.033.523.109.484.146.492.202.451.285.42.304.416.355.38.382.35.452.31.491.283.517.24.55.213.6.213.83.064.806v.758l-.064.735-.213.698-.28.59-.38.561-.453.485.278.065.556.17.453.217.414.272.35.348.349.422.282.483.268.628.256.698 1.042 3.308.24.655.244.446.312.322.418.137.18.557-3.831 1.117-.596-1.043-.348-.98-1.013-3.092-.247-.665-.27-.48-.306-.385-.35-.28-.429-.174-.481-.032-.563.07-.657.136-2.4.731-1.216.344 1.217 4.104v.002l1.124 3.695-1.124.345v-.002l-2.263.66-5.915-19.961 8.178-2.405.277-.115.556-.13.526-.077zm-33.75 2.722l.7.034.767.069.73.138.688.21.638.24.589.28.555.342.48.425.459.415.418.486.312.523.315.555.208.594.174.621.103.665.066.693-.033.737-.07.725-3.408-.52v-.73l-.102-.664-.213-.583-.31-.49-.421-.422-.479-.31-.64-.24-.719-.141-.67-.077-.588.043-.55.137-.49.24-.387.279-.344.418-.207.454-.142.523-.038.387.039.343.074.31.1.318.175.277.248.24.236.208.31.174 4.77 2.23.73.38.594.452.55.523.487.63.256.38.201.445.175.421.1.491.074 1.042-.103 1.188-.18.762-.174.737-.24.653-.31.628-.355.561-.382.517-.453.454-.484.382-.523.349-.552.276-.627.207-.633.18-.685.1-.737.03-.724-.03-.806-.073-.802-.173-.764-.175-.703-.273-.622-.276-.59-.355-.521-.376-.452-.421-.415-.484-.349-.526-.279-.555-.234-.62-.178-.666-.117-.702-.03-.76v-.8l.075-.834 3.407.512-.037.806.07.732.212.6.307.555.456.41.562.349.653.277.769.174.834.066h.732l.62-.136.568-.207.451-.317.345-.414.276-.49.132-.595.037-.343-.07-.345-.06-.342-.18-.322-.175-.31-.24-.28-.282-.21-.306-.171-4.485-2.158-.884-.49-.718-.556-.595-.621-.454-.738-.31-.757-.186-.877-.06-.971.105-1.007.141-.769.202-.693.256-.632.26-.62.322-.52.382-.49.426-.45.446-.389.486-.348.53-.235.582-.251.595-.137.665-.101.652-.034zm21.953.525h.001l.484 3.619-8.972 1.243.595 4.35 8.28-1.144.49 3.651-8.248 1.112.731 5.32 9.387-1.28.49 3.679-12.871 1.777-2.862-20.626 12.495-1.701zm11.653.515l-.522.103-.692.218-3.794 1.108 1.603 5.323 2.19-.659 2.225-.697.496-.18.38-.277.306-.313.212-.381.136-.452.077-.488-.038-.521-.142-.591-.207-.596-.277-.518-.312-.414-.354-.316-.382-.206-.447-.112-.458-.03z"/></svg>
